<?xml version="1.0" standalone="no"?>
<!DOCTYPE svg PUBLIC "-//W3C//DTD SVG 20010904//EN"
 "http://www.w3.org/TR/2001/REC-SVG-20010904/DTD/svg10.dtd">
<svg version="1.0" xmlns="http://www.w3.org/2000/svg"
 width="537.000000pt" height="537.000000pt" viewBox="0 0 537.000000 537.000000"
 preserveAspectRatio="xMidYMid meet">
<metadata>
Created by potrace 1.14, written by Peter Selinger 2001-2017
</metadata>
<g transform="translate(0.000000,537.000000) scale(0.100000,-0.100000)"
fill="#000000" stroke="none">
<path d="M2696 4854 c-115 -42 -171 -80 -301 -202 -95 -90 -155 -137 -220
-172 -33 -18 -66 -37 -73 -43 -61 -48 -257 -137 -303 -137 -34 0 -38 -6 -32
-47 5 -34 13 -39 78 -49 22 -3 43 -8 47 -10 3 -2 28 -7 54 -10 27 -3 52 -8 57
-11 27 -16 166 -41 214 -38 29 2 64 0 76 -4 l21 -8 -21 -11 c-11 -6 -36 -14
-54 -16 -64 -9 -180 -36 -202 -48 -12 -6 -24 -11 -27 -10 -13 5 -107 -32 -118
-47 -7 -9 -15 -15 -17 -13 -3 1 -23 -1 -46 -4 -42 -7 -80 -36 -192 -146 -31
-32 -62 -58 -67 -58 -18 0 -70 -52 -70 -71 0 -10 -9 -24 -20 -31 -11 -7 -20
-18 -20 -25 0 -7 -4 -13 -9 -13 -5 0 -22 -21 -38 -46 -15 -26 -36 -58 -45 -73
-10 -14 -21 -33 -25 -41 -4 -8 -28 -49 -53 -91 -26 -42 -52 -92 -59 -110 -7
-19 -19 -47 -26 -64 -16 -34 -32 -82 -65 -200 -12 -44 -41 -116 -65 -160 -57
-106 -106 -246 -111 -319 -2 -32 -6 -61 -9 -64 -2 -2 -1 -12 4 -21 5 -9 5 -25
2 -35 -12 -32 38 -151 76 -182 8 -7 16 -27 20 -47 5 -31 2 -35 -23 -45 -35
-12 -70 -44 -79 -72 -3 -11 -10 -20 -14 -20 -4 0 -17 -19 -27 -42 -27 -61 -24
-137 8 -185 45 -68 70 -125 64 -147 -3 -11 -35 -52 -71 -91 -47 -50 -69 -84
-80 -119 -22 -73 -20 -127 8 -154 60 -60 177 -136 224 -146 10 -1 25 -5 33 -9
8 -3 36 -11 63 -17 29 -8 65 -28 93 -53 l46 -41 -6 -55 c-3 -31 -12 -83 -20
-116 -7 -33 -14 -67 -14 -75 0 -8 -3 -35 -6 -60 -7 -54 -8 -206 -2 -238 8 -39
59 -100 101 -120 22 -11 65 -22 95 -26 30 -3 66 -8 79 -11 27 -5 103 -13 201
-21 36 -3 149 -6 251 -8 158 -3 197 -1 253 14 36 11 68 19 71 20 34 6 95 43
96 57 1 32 7 77 17 133 16 85 22 112 32 130 5 10 7 19 5 22 -3 2 0 20 6 39 19
64 21 74 24 112 1 20 5 40 8 43 6 7 70 16 95 15 6 -1 18 -1 25 -2 6 0 50 2 97
5 47 3 119 8 160 10 41 3 122 8 180 11 143 7 205 13 340 30 19 3 55 7 80 10
25 3 88 13 140 22 52 9 107 17 123 17 15 0 27 3 27 6 0 3 8 6 18 6 21 1 91 11
124 18 12 3 34 8 48 10 26 4 129 23 168 30 12 3 26 7 30 10 5 3 24 8 43 11 66
11 182 65 215 100 19 18 47 42 64 52 67 39 120 155 115 253 -3 68 -31 121
-106 200 -65 69 -70 83 -48 139 9 25 20 68 24 96 3 27 8 51 10 53 2 2 -3 25
-11 50 -8 26 -16 52 -18 57 -21 73 -124 195 -163 195 -20 0 -15 34 7 48 55 34
70 180 23 236 -10 11 -50 55 -90 96 -87 91 -163 183 -163 197 0 6 -6 16 -14
22 -17 15 -28 66 -32 151 -1 36 -5 79 -9 95 -4 17 -8 39 -10 50 -10 70 -61
238 -91 296 -19 38 -34 72 -35 76 0 5 -11 22 -25 40 -13 17 -24 36 -24 41 0
14 -41 48 -85 70 -22 12 -58 38 -80 59 -43 41 -161 123 -176 123 -5 0 -9 5 -9
10 0 6 -5 10 -10 10 -6 0 -28 11 -50 25 -22 14 -40 22 -40 18 0 -5 -4 -3 -8 3
-4 5 -25 18 -47 28 -22 10 -53 24 -69 32 -16 8 -36 14 -44 14 -9 0 -29 4 -46
9 -17 6 -60 18 -95 29 -36 10 -66 23 -68 28 -2 5 6 20 17 32 11 11 20 26 20
32 0 5 3 10 8 10 8 0 72 103 76 123 2 7 9 26 15 42 16 37 20 112 10 174 -8 52
-8 50 18 55 11 3 38 9 58 15 21 6 41 8 45 6 4 -3 13 2 20 11 19 22 1 34 -60
39 -35 3 -58 10 -71 23 -10 11 -15 23 -12 26 4 3 1 6 -5 6 -7 0 -12 4 -12 10
0 10 -14 29 -67 88 -18 20 -33 39 -33 44 0 4 -17 16 -37 26 -49 24 -218 28
-277 6z m382 -486 c6 -1 12 -8 12 -17 0 -16 -49 -121 -61 -131 -3 -3 -17 -23
-31 -45 -37 -58 -70 -90 -95 -91 -13 -1 -23 1 -23 5 0 3 -30 6 -68 7 -151 3
-312 13 -326 21 -14 8 -11 15 20 48 19 22 40 47 45 57 6 10 14 16 20 13 5 -4
15 -3 22 2 6 4 26 8 42 9 48 2 115 16 115 23 0 15 99 39 178 44 6 0 12 3 12 7
0 18 74 58 98 54 15 -3 33 -5 40 -6z"/>
</g>
</svg>
